<?xml version="1.0" encoding="utf-8"?>
<!-- Generator: Adobe Illustrator 16.0.0, SVG Export Plug-In . SVG Version: 6.00 Build 0)  -->
<!DOCTYPE svg PUBLIC "-//W3C//DTD SVG 1.1//EN" "http://www.w3.org/Graphics/SVG/1.1/DTD/svg11.dtd">
<svg version="1.1" id="Layer_1" xmlns="http://www.w3.org/2000/svg" xmlns:xlink="http://www.w3.org/1999/xlink" x="0px" y="0px"
	 width="140px" height="35.269px" viewBox="0 0 140 35.269" enable-background="new 0 0 140 35.269" xml:space="preserve">
<g id="LOGO_1_">
	<g id="LOGO_4_">
		<g>
			<path fill="#FFFFFF" d="M0.151,12.773C0.076,12.208,0.038,11.681,0,11.19c1.922-0.414,4.446-1.018,4.673-1.018
				c0.226,0,0.866,0.49,1.13,0.98c-0.227,3.654-0.716,11.002-0.792,13.451c0,0.227,0.151,0.264,0.301,0.15
				c0.98-0.866,2.223-2.185,3.58-4.068c1.658-2.412,3.692-6.218,3.692-8.026c0-0.188-0.15-0.302-0.377-0.302l-2.147,0.227
				c-0.076-0.565-0.113-1.093-0.151-1.621c1.62-0.263,3.918-0.715,4.22-0.715c0.264,0,1.168,0.941,1.168,1.168
				c0,2.676-2.826,7.536-4.597,9.872c-2.675,3.542-5.125,5.351-5.388,5.351c-0.603,0-1.771-0.038-2.788-0.189
				c-0.038-3.541,0.339-11.266,0.49-13.941L0.151,12.773z"/>
			<path fill="#FFFFFF" d="M17.519,12.735c-0.037-0.564-0.075-1.092-0.075-1.619c2.939-0.415,4.936-0.943,5.237-0.943
				c0.226,0,0.829,0.604,1.017,0.943c-0.866,3.691-2.788,11.642-3.24,13.525c-0.038,0.151,0,0.265,0.151,0.265
				c0.49,0,1.583-0.265,2.826-0.603c0.15,0.527,0.226,1.017,0.301,1.582c-1.545,0.489-3.278,0.828-4.71,0.828
				c-0.227,0-1.092-0.64-1.319-1.168c0.829-3.729,2.035-8.779,3.014-12.998L17.519,12.735z M25.018,4.747
				c0,0.98-0.942,1.959-1.997,1.959c-1.093,0-1.922-0.903-1.922-1.883c0-0.867,0.792-1.922,2.11-1.922
				C24.452,2.901,25.018,3.956,25.018,4.747z"/>
			<path fill="#FFFFFF" d="M36.922,21.778c-2.826,3.316-5.689,5.012-7.347,5.049c-0.942-0.113-2.186-0.866-2.788-1.959
				c-0.264-0.414-0.377-0.979-0.377-1.508c0-1.619,0.527-3.842,1.243-5.764c1.168-3.166,3.806-7.424,7.573-7.424
				c1.583,0,2.902,0.641,3.806,1.357h0.188c0.641-2.713,1.432-6.255,2.072-9.081L37.94,2.601c-0.038-0.566-0.076-1.094-0.076-1.583
				C40.992,0.603,43.064,0,43.328,0s0.716,0.452,0.979,0.829c-0.64,2.788-4.898,20.987-5.501,23.775
				c-0.038,0.113,0.075,0.227,0.188,0.227c0.264,0,1.167-0.189,2.336-0.604c0.151,0.527,0.264,1.055,0.339,1.545
				c-1.695,0.641-3.24,0.941-4.408,0.941c-0.188,0-0.867-0.489-1.055-0.941c0.113-0.604,0.49-1.997,0.942-3.918L36.922,21.778z
				 M37.639,18.237c0.226-0.904,0.829-3.392,1.055-4.56c-0.83-1.018-2.186-1.47-3.354-1.47c-2.185,0-3.88,2.373-4.823,4.785
				c-0.753,1.922-1.318,4.296-1.318,5.878c0,1.319,0.678,1.771,1.394,1.771C32.703,24.642,37.073,20.158,37.639,18.237z"/>
			<path fill="#FFFFFF" d="M48.187,13.149c1.884-2.146,3.692-2.977,5.651-2.977c2.675,0,4.069,2.111,4.106,3.994
				c-0.188,1.244-0.979,2.826-2.071,3.43c-2.073,1.092-4.673,1.432-7.95,1.432c-0.264,0.904-0.49,2.186-0.49,2.9
				c0,1.771,0.941,2.789,2.562,2.789c1.507,0,3.881-0.829,5.953-1.997c0.227,0.489,0.414,0.979,0.603,1.47
				c-2.147,1.318-4.936,2.562-7.536,2.562c-1.996,0-4.408-1.508-4.408-4.447C44.607,20.008,45.662,15.976,48.187,13.149z
				 M50.146,13.603c-0.604,0.828-1.318,1.959-1.846,3.805c2.034,0.039,3.993-0.264,5.35-0.941c0.866-0.414,1.545-1.018,1.545-2.072
				c0-1.205-0.641-2.412-2.109-2.412C51.879,11.981,50.937,12.622,50.146,13.603z"/>
			<path fill="#FFFFFF" d="M70.152,24.68c-1.395,1.319-3.015,2.073-5.351,2.073c-1.922,0-3.128-0.792-3.806-1.621
				c-0.565-0.715-1.092-2.035-1.092-3.467c0-3.73,1.544-7.196,3.843-9.381c1.733-1.583,3.466-2.111,5.274-2.111
				c1.582,0,2.713,0.566,3.504,1.395c0.792,0.829,1.433,2.262,1.433,4.183C73.958,18.878,72.638,22.231,70.152,24.68z
				 M68.757,23.323c1.318-1.582,2.336-4.86,2.336-7.498c0-1.356-0.188-2.147-0.603-2.826c-0.377-0.641-0.979-1.13-2.071-1.13
				c-1.282,0-2.45,0.679-3.506,2.072c-0.941,1.28-2.147,4.257-2.147,7.385c0,1.169,0.151,1.997,0.603,2.714
				c0.415,0.715,1.207,1.055,2.073,1.055C66.76,25.095,67.929,24.378,68.757,23.323z"/>
			<path fill="#FFFFFF" d="M81.642,15.712c2.825-3.73,5.274-5.539,7.686-5.576c0.867,0.113,2.035,0.98,2.562,2.109
				c0.188,0.377,0.301,0.904,0.301,1.395c0,2.525-0.715,5.879-2.223,8.516c-1.093,2.072-3.277,4.598-6.443,4.598
				c-1.318,0-2.6-0.415-3.729-1.433c-0.565,2.825-1.395,7.046-1.997,9.909c-0.83,0.039-1.695,0.039-2.562,0.039
				c1.356-6.934,3.127-16.014,4.408-22.76l-3.052,0.151c0-0.565,0-1.093,0-1.583c3.241-0.489,4.446-0.904,4.672-0.904
				c0.227,0,0.829,0.453,1.018,0.83c-0.264,1.168-0.64,2.938-1.018,4.634L81.642,15.712z M88.123,12.472
				c-2.336,0-6.557,4.785-7.234,7.084c-0.151,0.641-0.566,2.788-0.754,3.692c0.828,1.018,2.147,1.658,3.24,1.658
				c2.147,0,3.617-1.733,4.408-3.392c1.093-2.26,1.62-5.087,1.62-7.234C89.403,13.339,88.989,12.472,88.123,12.472z"/>
			<path fill="#FFFFFF" d="M104.283,21.892c-3.465,3.844-5.877,4.936-7.121,4.936c-0.828-0.15-2.071-0.904-2.637-1.959
				c-0.226-0.414-0.339-0.904-0.339-1.508c0-1.355,0.452-3.654,1.206-5.65c1.13-3.09,3.768-7.537,7.348-7.537
				c1.431,0,2.712,0.679,3.729,1.847h0.226l0.83-1.997c0.678,0.189,1.394,0.415,2.072,0.641c-1.018,3.392-2.676,10.023-3.504,13.941
				c0,0.113,0.074,0.227,0.188,0.227c0.301,0,1.318-0.264,2.562-0.679c0.15,0.527,0.264,1.055,0.339,1.583
				c-1.583,0.603-3.466,0.979-4.634,0.979c-0.114,0-0.792-0.489-0.98-0.941c0.113-0.641,0.527-2.186,0.943-3.805L104.283,21.892z
				 M98.406,16.767c-0.866,2.035-1.432,4.409-1.432,6.218c0,1.093,0.565,1.657,1.205,1.657c1.771,0,5.991-4.145,6.707-6.066
				c0.227-0.678,0.905-3.391,1.168-4.521c-0.828-1.206-1.996-1.847-3.277-1.847C100.855,12.208,99.273,14.657,98.406,16.767z"/>
			<path fill="#FFFFFF" d="M117.507,24.68c1.018,0,2.713-0.302,4.295-0.753c0.076,0.49,0.113,1.092,0.151,1.619
				c-2.073,0.754-4.409,1.168-5.766,1.168c-1.055,0-2.599-0.866-3.089-2.373c-0.076-0.227-0.113-0.452-0.113-0.678
				c0-1.093,1.092-5.689,1.281-6.707c0.301-1.281,0.791-3.43,1.018-4.484c-0.829,0-1.922,0-2.939,0
				c0.113-0.564,0.227-1.168,0.339-1.695c0.942-0.075,1.923-0.15,2.788-0.188c0.113,0,0.264-0.113,0.302-0.264
				c0.302-1.056,0.641-2.411,0.942-3.504c0.904-0.415,2.109-0.641,2.449-0.641c0.075,0,0.113,0.038,0.113,0.151
				c-0.227,1.092-0.604,2.787-0.943,4.257c1.885,0,3.881,0,5.69-0.038c-0.075,0.679-0.226,1.357-0.378,1.922
				c-1.619,0-3.654,0-5.727,0c-0.264,1.055-0.754,3.278-1.018,4.56c-0.377,1.657-1.13,5.049-1.13,6.065
				C115.774,24.19,116.452,24.68,117.507,24.68z"/>
			<path fill="#FFFFFF" d="M126.586,2.713c-0.038-0.527-0.075-1.055-0.075-1.545c2.713-0.489,5.237-1.168,5.5-1.168
				c0.227,0,0.793,0.452,1.018,0.829c-0.564,2.261-2.674,10.55-3.578,14.092l0.225,0.113c3.393-3.881,6.18-4.822,7.537-4.861
				c0.791,0.113,1.959,0.754,2.524,1.96c0.15,0.339,0.226,0.754,0.226,1.168c0,1.658-1.281,6.405-3.014,11.304
				c-0.076,0.113,0,0.227,0.15,0.227c0.414,0,1.469-0.189,2.638-0.49c0.112,0.527,0.188,1.055,0.263,1.582
				c-1.544,0.527-3.768,0.791-4.973,0.791c-0.188,0-0.867-0.64-0.98-1.129c0.68-1.96,1.885-5.803,2.412-7.838
				c0.264-0.98,0.717-2.751,0.717-3.73c0-0.716-0.378-1.356-1.206-1.356c-2.299,0-6.595,3.994-7.159,6.18
				c-0.415,1.47-1.545,6.104-1.885,7.535c-0.866,0-1.77,0-2.637,0c0.828-3.429,4.521-18.989,5.652-23.888L126.586,2.713z"/>
		</g>
	</g>
</g>
</svg>
