<?xml version="1.0" encoding="utf-8"?>
<!-- Generator: Adobe Illustrator 18.0.0, SVG Export Plug-In . SVG Version: 6.00 Build 0)  -->
<!DOCTYPE svg PUBLIC "-//W3C//DTD SVG 1.1//EN" "http://www.w3.org/Graphics/SVG/1.1/DTD/svg11.dtd">
<svg version="1.1" id="Layer_1" xmlns="http://www.w3.org/2000/svg" xmlns:xlink="http://www.w3.org/1999/xlink" x="0px" y="0px"
	 viewBox="0 0 50 50" enable-background="new 0 0 50 50" xml:space="preserve">
<g id="New_Symbol_17">
</g>
<g id="New_Symbol_2">
	<g>
		<polygon fill="#E6EDEE" points="40.7,39.3 9.3,39.3 9.3,16.7 40.7,16.7 		"/>
		<path fill="#FF6B57" d="M21.4,14.2c0,1.9,1.5,3.4,3.4,3.4s3.4-1.5,3.4-3.4s-1.5-3.4-3.4-3.4S21.4,12.4,21.4,14.2z"/>
		<path fill="#41C3AC" d="M15.6,13.4c0,1.4,1.1,2.5,2.5,2.5c1.4,0,2.5-1.1,2.5-2.5s-1.1-2.5-2.5-2.5C16.7,10.9,15.6,12,15.6,13.4z"
			/>
		<path fill="#FFFFFF" d="M9.7,13.4c0,1.4,1.1,2.5,2.5,2.5s2.5-1.1,2.5-2.5s-1.1-2.5-2.5-2.5S9.7,12,9.7,13.4z"/>
		<path d="M7.7,40V13.1c0-1.8,1.5-3.3,3.3-3.3h28c1.8,0,3.3,1.5,3.3,3.3V40H7.7L7.7,40z M12.6,12.1c-0.9,0-1.6,0.8-1.6,1.6
			s0.8,1.6,1.6,1.6c0.9,0,1.6-0.8,1.6-1.6C14.2,12.9,13.4,12.1,12.6,12.1L12.6,12.1z M17.9,12.1c-0.9,0-1.6,0.8-1.6,1.6
			s0.8,1.6,1.6,1.6s1.6-0.8,1.6-1.6S18.8,12.1,17.9,12.1L17.9,12.1z M23.3,12.1c-0.9,0-1.6,0.8-1.6,1.6s0.8,1.6,1.6,1.6
			s1.6-0.8,1.6-1.6S24.2,12.1,23.3,12.1L23.3,12.1z M39.9,17.5h-30V38h30V17.5L39.9,17.5z"/>
		<g>
			<path fill="#32526E" d="M12.4,25.6h1.4l0.6,1.8c0.4,1,0.5,1.6,0.5,2.1c0-0.5,0-1,0.4-2l0.6-2h1.5l0.8,2.3
				c0.3,0.8,0.4,1.3,0.4,1.6c0-0.4,0.3-1.1,0.4-1.8l0.6-2.1h1.3l-1.5,4.9h-1.5l-0.6-1.9c-0.4-1.3-0.4-1.4-0.5-2
				c-0.1,0.5-0.1,0.8-0.3,1l-0.3,0.6v0.4l-0.6,2h-1.5L12.4,25.6z"/>
			<path fill="#32526E" d="M20.8,25.6h1.4l0.6,1.8c0.4,1,0.5,1.6,0.5,2.1c0-0.5,0.1-1,0.4-2l0.6-2h1.5l0.8,2.3
				c0.3,0.8,0.4,1.3,0.4,1.6c0-0.4,0.3-1.1,0.4-1.8l0.6-2.1h1.3l-1.6,5h-1.5l-0.6-1.9c-0.4-1.3-0.4-1.5-0.5-2c0,0.5-0.1,0.6-0.3,1
				L24.6,28l-0.1,0.4l-0.6,2h-1.4L20.8,25.6z"/>
			<path fill="#32526E" d="M29.2,25.6h1.4l0.6,1.8c0.4,1,0.5,1.6,0.5,2.1c0-0.5,0.1-0.9,0.4-1.9l0.6-2h1.5l0.8,2.3
				c0.3,0.8,0.4,1.3,0.4,1.6c0-0.4,0.3-1.1,0.4-1.8l0.5-2.1h1.3l-1.5,4.9h-1.5l-0.6-1.9c-0.4-1.3-0.4-1.4-0.5-2c0,0.5-0.1,0.6-0.1,1
				l-0.1,0.5l-0.1,0.4l-0.6,2h-1.4L29.2,25.6z"/>
		</g>
	</g>
</g>
<g id="New_Symbol_3">
</g>
<g id="New_Symbol_15">
	<g id="New_Symbol_18">
	</g>
	<g id="New_Symbol_5">
	</g>
	<g id="New_Symbol_234">
	</g>
	<g id="New_Symbol_233">
	</g>
	<g id="New_Symbol_4">
	</g>
	<g id="New_Symbol_191">
		<g id="New_Symbol_189">
		</g>
	</g>
</g>
</svg>
