<?xml version="1.0" encoding="utf-8"?>
<!-- Generator: Adobe Illustrator 18.0.0, SVG Export Plug-In . SVG Version: 6.00 Build 0)  -->
<!DOCTYPE svg PUBLIC "-//W3C//DTD SVG 1.1//EN" "http://www.w3.org/Graphics/SVG/1.1/DTD/svg11.dtd">
<svg version="1.1" id="Layer_1" xmlns="http://www.w3.org/2000/svg" xmlns:xlink="http://www.w3.org/1999/xlink" x="0px" y="0px"
	 viewBox="0 0 50 50" enable-background="new 0 0 50 50" xml:space="preserve">
<g id="New_Symbol_17">
</g>
<g id="New_Symbol_3">
</g>
<g id="New_Symbol">
	<g>
		<polygon fill="#E6EDEE" points="41.9,35.7 8.1,35.7 8.1,12.8 41.9,12.8 		"/>
		<g>
			<path fill="#FF6B57" d="M19.2,21c0,1.8-1.4,3.1-3.1,3.1s-3.1-1.4-3.1-3.1s1.4-3.1,3.1-3.1C17.7,17.8,19.2,19.3,19.2,21z"/>
		</g>
		<path fill="#183F68" d="M6.8,11.5V37h36.4V11.5H6.8z M9.3,14h31.4v9.3l-2-3.6l-5,11l-3-3.1c0,0-4.1,1.5-5.5,3.9
			c-2.1-1.3-3.4,0-3.4,0l-2.5,3H9.3V14z"/>
		<g>
			<path fill="#1A416A" d="M47,40.9H3V7.7H47V40.9z M5.5,38.4h38.9V10.2H5.5V38.4z"/>
		</g>
	</g>
</g>
<g id="New_Symbol_15">
	<g id="New_Symbol_18">
	</g>
	<g id="New_Symbol_5">
	</g>
	<g id="New_Symbol_234">
	</g>
	<g id="New_Symbol_233">
	</g>
	<g id="New_Symbol_4">
	</g>
	<g id="New_Symbol_191">
		<g id="New_Symbol_189">
		</g>
	</g>
</g>
</svg>
