<?xml version="1.0" encoding="utf-8"?>
<!-- Generator: Adobe Illustrator 18.0.0, SVG Export Plug-In . SVG Version: 6.00 Build 0)  -->
<!DOCTYPE svg PUBLIC "-//W3C//DTD SVG 1.1//EN" "http://www.w3.org/Graphics/SVG/1.1/DTD/svg11.dtd">
<svg version="1.1" id="Layer_1" xmlns="http://www.w3.org/2000/svg" xmlns:xlink="http://www.w3.org/1999/xlink" x="0px" y="0px"
	 viewBox="0 0 50 50" enable-background="new 0 0 50 50" xml:space="preserve">
<g id="New_Symbol_17">
</g>
<g id="New_Symbol_3">
	<g id="XMLID_2_">
		<polygon opacity="0.4" fill="#FFFFFF" enable-background="new    " points="16.1,37.6 22.1,42.2 28.3,20 21.9,16.4 		"/>
		<polygon opacity="0.4" fill="#FFFFFF" enable-background="new    " points="29.6,37.4 35.6,42 41.8,19.7 35.5,16.1 		"/>
		<g>
			<line fill="none" stroke="#183F68" stroke-width="1.5009" stroke-miterlimit="10" x1="22.1" y1="42.2" x2="28.5" y2="19.5"/>
			<line fill="none" stroke="#183F68" stroke-width="1.5009" stroke-miterlimit="10" x1="42" y1="19.6" x2="35.5" y2="41.8"/>
			<line fill="none" stroke="#183F68" stroke-width="1.5009" stroke-miterlimit="10" x1="29.8" y1="37" x2="35.5" y2="16.1"/>
			<line fill="none" stroke="#183F68" stroke-width="1.5009" stroke-miterlimit="10" x1="16.2" y1="37.5" x2="22.2" y2="42.4"/>
			<polyline fill="none" stroke="#183F68" stroke-width="1.5009" stroke-miterlimit="10" points="22,16.4 14.6,19.3 8.3,40.4 
				16.2,37.3 			"/>
			<polyline fill="none" stroke="#183F68" stroke-width="1.5009" stroke-miterlimit="10" points="16.1,37.6 22.2,16.8 28.5,19.5 			
				"/>
			<line fill="none" stroke="#183F68" stroke-width="1.5009" stroke-miterlimit="10" x1="28.5" y1="19.5" x2="35.7" y2="16"/>
			<line fill="none" stroke="#183F68" stroke-width="1.5009" stroke-miterlimit="10" x1="21.8" y1="42.4" x2="30" y2="36.8"/>
			<line fill="none" stroke="#183F68" stroke-width="1.5009" stroke-miterlimit="10" x1="35.4" y1="41.4" x2="29.9" y2="37.2"/>
			<line fill="none" stroke="#183F68" stroke-width="1.5009" stroke-miterlimit="10" x1="42.1" y1="20" x2="35.4" y2="16"/>
		</g>
		<path fill="#FF6B57" d="M32.7,12.4c0-2.9-2.4-5.3-5.3-5.3S22,9.5,22,12.4c0,0.8,0.2,1.6,0.5,2.3l0,0l0,0c0,0,0,0,0,0.1l0,0l4.7,9
			l4.9-9l0,0l0,0l0,0l0,0C32.4,14,32.7,13.2,32.7,12.4z"/>
		<path fill="#FFFFFF" d="M30.7,12.6c0,1.9-1.5,3.4-3.4,3.4S24,14.5,24,12.6s1.5-3.4,3.4-3.4S30.7,10.7,30.7,12.6z"/>
	</g>
</g>
<g id="New_Symbol_15">
	<g id="New_Symbol_18">
	</g>
	<g id="New_Symbol_5">
	</g>
	<g id="New_Symbol_234">
	</g>
	<g id="New_Symbol_233">
	</g>
	<g id="New_Symbol_4">
	</g>
	<g id="New_Symbol_191">
		<g id="New_Symbol_189">
		</g>
	</g>
</g>
</svg>
