<?xml version="1.0" encoding="utf-8"?>
<!-- Generator: Adobe Illustrator 16.0.0, SVG Export Plug-In . SVG Version: 6.00 Build 0)  -->
<!DOCTYPE svg PUBLIC "-//W3C//DTD SVG 1.1//EN" "http://www.w3.org/Graphics/SVG/1.1/DTD/svg11.dtd">
<svg version="1.1" id="Layer_1" xmlns="http://www.w3.org/2000/svg" xmlns:xlink="http://www.w3.org/1999/xlink" x="0px" y="0px"
	 width="612px" height="792px" viewBox="0 0 612 792" enable-background="new 0 0 612 792" xml:space="preserve">
<g id="New_Symbol_17">
</g>
<g id="New_Symbol_3">
</g>
<g id="New_Symbol_15">
	<g id="New_Symbol_18">
	</g>
	<g id="New_Symbol_5">
	</g>
	<g id="New_Symbol_234">
	</g>
	<g id="New_Symbol_233">
	</g>
	<g id="New_Symbol_4">
	</g>
	<g id="New_Symbol_191">
		<g id="New_Symbol_189">
		</g>
	</g>
</g>
<g id="New_Symbol_17_1_">
</g>
<g id="New_Symbol_3_1_">
</g>
<g id="New_Symbol_15_1_">
	<g id="New_Symbol_18_1_">
	</g>
	<g>
		<g>
			<path fill="#32526E" d="M447.371,277.677c-33.03-60.777-109.662-100.413-194.22-100.413
				c-116.268,0-211.396,75.31-211.396,167.795c0,85.879,81.916,157.226,188.935,166.474c0,2.643,0,6.606-1.321,9.249
				c-3.963,27.746-22.46,51.528-48.885,63.419c-6.606,2.643-10.57,10.569-7.928,17.176c2.643,6.606,9.249,10.569,15.855,9.249
				c-1.321,0-2.642,0-3.964,0c44.921,2.641,87.201-14.534,117.589-47.564c5.285-5.284,5.285-14.533,0-19.818
				c-5.285-5.284-14.534-5.284-19.819,1.322c-13.212,14.533-30.388,25.104-47.564,31.709c11.891-14.533,18.497-31.709,22.461-51.527
				c1.321-9.247,1.321-18.497,1.321-27.746c-1.321-7.927-7.928-13.212-14.533-11.891l0,0c-1.322,0-2.643-1.322-3.964-1.322
				c-95.128-5.284-169.116-67.382-169.116-140.049c0-77.952,83.237-140.05,183.65-140.05c73.986,0,141.371,34.352,170.438,85.879
				c3.964,6.606,11.891,9.249,18.497,5.285C448.692,292.21,451.334,284.283,447.371,277.677"/>
		</g>
		<g>
			<path fill="#32526E" d="M570.244,440.188c0-62.096-64.739-113.625-145.334-113.625s-145.334,50.206-145.334,113.625
				c0,54.172,47.564,99.092,112.303,109.661c15.855,38.315,55.492,64.742,99.094,62.098l0,0l0,0l0,0
				c3.964,0,6.606-2.643,7.927-5.284c2.644-3.966,0-9.249-3.963-11.893c-1.323-1.321-2.643-1.321-3.964-1.321
				c1.321,0,2.641,0,3.964,1.321c-18.498-7.927-30.389-23.782-34.353-43.6v-1.323C524.002,536.638,570.244,493.036,570.244,440.188
				 M487.007,610.626L487.007,610.626L487.007,610.626L487.007,610.626"/>
		</g>
	</g>
	<g id="New_Symbol_5_1_">
	</g>
	<g id="New_Symbol_234_1_">
	</g>
	<g id="New_Symbol_233_1_">
	</g>
	<g id="New_Symbol_4_1_">
	</g>
	<g id="New_Symbol_191_1_">
		<g id="New_Symbol_189_1_">
		</g>
	</g>
</g>
</svg>
