<?xml version="1.0" encoding="utf-8"?>
<!-- Generator: Adobe Illustrator 18.0.0, SVG Export Plug-In . SVG Version: 6.00 Build 0)  -->
<!DOCTYPE svg PUBLIC "-//W3C//DTD SVG 1.1//EN" "http://www.w3.org/Graphics/SVG/1.1/DTD/svg11.dtd">
<svg version="1.1" id="Layer_1" xmlns="http://www.w3.org/2000/svg" xmlns:xlink="http://www.w3.org/1999/xlink" x="0px" y="0px"
	 viewBox="0 0 50 50" enable-background="new 0 0 50 50" xml:space="preserve">
<g id="New_Symbol_17">
</g>
<g id="New_Symbol_3">
</g>
<g id="New_Symbol_1">
	<path fill="#32526E" d="M40.8,11.6V16c0,0.8-0.6,1.4-1.4,1.4h-9.5c-0.8,0-1.4,0.6-1.4,1.4v19.6c0,0.8-0.6,1.4-1.4,1.4h-4.5
		c-0.8,0-1.4-0.6-1.4-1.4V18.8c0-0.8-0.6-1.4-1.4-1.4h-9.4c-0.8,0-1.4-0.6-1.4-1.4v-4.4c0-0.8,0.6-1.4,1.4-1.4h29
		C40.2,10.2,40.8,10.9,40.8,11.6z"/>
</g>
<g id="New_Symbol_15">
	<g id="New_Symbol_18">
	</g>
	<g id="New_Symbol_5">
	</g>
	<g id="New_Symbol_234">
	</g>
	<g id="New_Symbol_233">
	</g>
	<g id="New_Symbol_4">
	</g>
	<g id="New_Symbol_191">
		<g id="New_Symbol_189">
		</g>
	</g>
</g>
</svg>
