<?xml version="1.0" encoding="utf-8"?>
<!-- Generator: Adobe Illustrator 18.0.0, SVG Export Plug-In . SVG Version: 6.00 Build 0)  -->
<!DOCTYPE svg PUBLIC "-//W3C//DTD SVG 1.1//EN" "http://www.w3.org/Graphics/SVG/1.1/DTD/svg11.dtd">
<svg version="1.1" id="Layer_1" xmlns="http://www.w3.org/2000/svg" xmlns:xlink="http://www.w3.org/1999/xlink" x="0px" y="0px"
	 viewBox="0 0 50 50" enable-background="new 0 0 50 50" xml:space="preserve">
<symbol  id="New_Symbol_7" viewBox="-33.7 -30 67.4 59.9">
	<g>
		<path fill="#41C3AC" d="M30.7-30h-61.4c-1.7,0-3,1.7-3,3.8v52.3c0,2.1,1.3,3.8,3,3.8h61.4c1.7,0,3-1.7,3-3.8v-52.3
			C33.7-28.3,32.3-30,30.7-30z"/>
		<g>
			<path fill="#FFFFFF" d="M25.1-17.5h-50.2c-1.3,0-2.3,1-2.3,2.2v30.5c0,1.2,1,2.2,2.3,2.2h50.2c1.3,0,2.3-1,2.3-2.2v-30.5
				C27.4-16.5,26.4-17.5,25.1-17.5z"/>
			<g>
				<path fill="#FFFFFF" d="M-23.5,25c0,1.1-0.7,2-1.6,2h-0.8c-0.9,0-1.6-0.9-1.6-2v-1c0-1.1,0.7-2,1.6-2h0.8c0.9,0,1.6,0.9,1.6,2
					V25z"/>
				<path fill="#FFFFFF" d="M-17.1,25c0,1.1-0.7,2-1.6,2h-0.8c-0.9,0-1.6-0.9-1.6-2v-1c0-1.1,0.7-2,1.6-2h0.8c0.9,0,1.6,0.9,1.6,2
					V25z"/>
				<path fill="#FFFFFF" d="M-10.8,25c0,1.1-0.7,2-1.6,2h-0.8c-0.9,0-1.6-0.9-1.6-2v-1c0-1.1,0.7-2,1.6-2h0.8c0.9,0,1.6,0.9,1.6,2
					V25z"/>
				<path fill="#FFFFFF" d="M-4.4,25c0,1.1-0.7,2-1.6,2h-0.8c-0.9,0-1.6-0.9-1.6-2v-1c0-1.1,0.7-2,1.6-2H-6c0.9,0,1.6,0.9,1.6,2V25z
					"/>
				<path fill="#FFFFFF" d="M2,25c0,1.1-0.7,2-1.6,2h-0.8C-1.3,27-2,26.1-2,25v-1c0-1.1,0.7-2,1.6-2h0.8C1.3,22,2,22.9,2,24V25z"/>
				<path fill="#FFFFFF" d="M8.3,25c0,1.1-0.7,2-1.6,2H6c-0.9,0-1.6-0.9-1.6-2v-1c0-1.1,0.7-2,1.6-2h0.8c0.9,0,1.6,0.9,1.6,2v1H8.3z
					"/>
				<path fill="#FFFFFF" d="M14.7,25c0,1.1-0.7,2-1.6,2h-0.8c-0.9,0-1.6-0.9-1.6-2v-1c0-1.1,0.7-2,1.6-2h0.8c0.9,0,1.6,0.9,1.6,2V25
					z"/>
				<path fill="#FFFFFF" d="M21.1,25c0,1.1-0.7,2-1.6,2h-0.8c-0.9,0-1.6-0.9-1.6-2v-1c0-1.1,0.7-2,1.6-2h0.8c0.9,0,1.6,0.9,1.6,2V25
					z"/>
				<path fill="#FFFFFF" d="M27.4,25c0,1.1-0.7,2-1.6,2H25c-0.9,0-1.6-0.9-1.6-2v-1c0-1.1,0.7-2,1.6-2h0.8c0.9,0,1.6,0.9,1.6,2V25z"
					/>
			</g>
			<g>
				<path fill="#FFFFFF" d="M-23.5-24c0,1.1-0.7,2-1.6,2h-0.8c-0.9,0-1.6-0.9-1.6-2v-1c0-1.1,0.7-2,1.6-2h0.8c0.9,0,1.6,0.9,1.6,2
					V-24z"/>
				<path fill="#FFFFFF" d="M-17.1-24c0,1.1-0.7,2-1.6,2h-0.8c-0.9,0-1.6-0.9-1.6-2v-1c0-1.1,0.7-2,1.6-2h0.8c0.9,0,1.6,0.9,1.6,2
					V-24z"/>
				<path fill="#FFFFFF" d="M-10.8-24c0,1.1-0.7,2-1.6,2h-0.8c-0.9,0-1.6-0.9-1.6-2v-1c0-1.1,0.7-2,1.6-2h0.8c0.9,0,1.6,0.9,1.6,2
					V-24z"/>
				<path fill="#FFFFFF" d="M-4.4-24c0,1.1-0.7,2-1.6,2h-0.8c-0.9,0-1.6-0.9-1.6-2v-1c0-1.1,0.7-2,1.6-2H-6c0.9,0,1.6,0.9,1.6,2V-24
					z"/>
				<path fill="#FFFFFF" d="M2-24c0,1.1-0.7,2-1.6,2h-0.8C-1.3-22-2-22.9-2-24v-1c0-1.1,0.7-2,1.6-2h0.8C1.3-27,2-26.1,2-25V-24z"/>
				<path fill="#FFFFFF" d="M8.3-24c0,1.1-0.7,2-1.6,2H6c-0.9,0-1.6-0.9-1.6-2v-1c0-1.1,0.7-2,1.6-2h0.8c0.9,0,1.6,0.9,1.6,2v1H8.3z
					"/>
				<path fill="#FFFFFF" d="M14.7-24c0,1.1-0.7,2-1.6,2h-0.8c-0.9,0-1.6-0.9-1.6-2v-1c0-1.1,0.7-2,1.6-2h0.8c0.9,0,1.6,0.9,1.6,2
					V-24z"/>
				<path fill="#FFFFFF" d="M21.1-24c0,1.1-0.7,2-1.6,2h-0.8c-0.9,0-1.6-0.9-1.6-2v-1c0-1.1,0.7-2,1.6-2h0.8c0.9,0,1.6,0.9,1.6,2
					V-24z"/>
				<path fill="#FFFFFF" d="M27.4-24c0,1.1-0.7,2-1.6,2H25c-0.9,0-1.6-0.9-1.6-2v-1c0-1.1,0.7-2,1.6-2h0.8c0.9,0,1.6,0.9,1.6,2V-24z
					"/>
			</g>
		</g>
	</g>
	<path fill="#FF884D" d="M5.9-1L-4.4-8.4c-0.2-0.2-0.5-0.2-0.7-0.2s-0.4,0-0.6,0.1c-0.4,0.2-0.7,0.6-0.7,1.1V7.4
		c0,0.5,0.3,0.9,0.7,1.1c0.4,0.2,0.9,0.2,1.3-0.1L5.9,1c0.3-0.2,0.5-0.6,0.5-1S6.2-0.8,5.9-1z"/>
</symbol>
<symbol  id="New_Symbol_9" viewBox="-18.5 -17.1 37.1 34.3">
	<defs>
		<filter id="Adobe_OpacityMaskFilter" filterUnits="userSpaceOnUse" x="-4.5" y="-17.1" width="23" height="20.4">
			<feColorMatrix  type="matrix" values="1 0 0 0 0  0 1 0 0 0  0 0 1 0 0  0 0 0 1 0"/>
		</filter>
	</defs>
	<mask maskUnits="userSpaceOnUse" x="-4.5" y="-17.1" width="23" height="20.4" id="XMLID_1_">
		<g filter="url(#Adobe_OpacityMaskFilter)">
		</g>
	</mask>
	<g mask="url(#XMLID_1_)">
		<g transform="matrix(1 0 0 1 0 4.768372e-07)">
			
				<use xlink:href="#New_Symbol_7"  width="67.4" height="59.9" id="XMLID_2_" x="-33.7" y="-30" transform="matrix(0.3414 0 0 0.3414 7.035 6.9119)" overflow="visible"/>
		</g>
	</g>
	<path fill="#273A45" d="M0.6,8.4h-11.5c-0.7,0-1.3-0.6-1.3-1.4V-9.2c-1.4,0.9-3.5,0.5-4.9-1.1c-1.7-1.8-1.9-4.5-0.5-5.9
		c1.4-1.5,3.8-1.2,5.5,0.6c0.9,1,1.4,2.3,1.4,3.4c0,0.1,0,0.2,0,0.3V3.6h11v-7.3c-1.4,0.9-3.4,0.5-4.9-1.1c-1.7-1.8-1.9-4.5-0.5-5.9
		c1.4-1.5,3.8-1.2,5.5,0.6c0.9,1,1.4,2.2,1.4,3.3v0.1V7C1.8,7.8,1.3,8.4,0.6,8.4 M-0.4,4.5H-10c-0.4,0-0.8,0.4-0.8,0.8
		c0,0.5,0.3,0.8,0.8,0.8h9.6c0.4,0,0.8-0.4,0.8-0.8C0.4,4.9,0.1,4.5-0.4,4.5"/>
</symbol>
<g>
	<path fill="#41C3AC" d="M41.9,28.2H21.7c-0.5,0-1-0.6-1-1.3V9.7c0-0.7,0.4-1.3,1-1.3h20.3c0.5,0,1,0.6,1,1.3V27
		C42.9,27.7,42.5,28.2,41.9,28.2z"/>
	<g>
		<path fill="#FFFFFF" d="M40.1,24.1H23.5c-0.4,0-0.8-0.3-0.8-0.7V13.3c0-0.4,0.3-0.7,0.8-0.7h16.6c0.4,0,0.8,0.3,0.8,0.7v10.1
			C40.9,23.8,40.5,24.1,40.1,24.1z"/>
		<g>
			<path fill="#FFFFFF" d="M24.1,10.1c0-0.4-0.2-0.7-0.5-0.7h-0.3c-0.3,0-0.5,0.3-0.5,0.7v0.3c0,0.4,0.2,0.7,0.5,0.7h0.3
				c0.3,0,0.5-0.3,0.5-0.7V10.1z"/>
			<path fill="#FFFFFF" d="M26.2,10.1c0-0.4-0.2-0.7-0.5-0.7h-0.3c-0.3,0-0.5,0.3-0.5,0.7v0.3c0,0.4,0.2,0.7,0.5,0.7h0.3
				c0.3,0,0.5-0.3,0.5-0.7V10.1z"/>
			<path fill="#FFFFFF" d="M28.3,10.1c0-0.4-0.2-0.7-0.5-0.7h-0.3c-0.3,0-0.5,0.3-0.5,0.7v0.3c0,0.4,0.2,0.7,0.5,0.7h0.3
				c0.3,0,0.5-0.3,0.5-0.7V10.1z"/>
			<path fill="#FFFFFF" d="M30.4,10.1c0-0.4-0.2-0.7-0.5-0.7h-0.3c-0.3,0-0.5,0.3-0.5,0.7v0.3c0,0.4,0.2,0.7,0.5,0.7h0.3
				c0.3,0,0.5-0.3,0.5-0.7V10.1z"/>
			<path fill="#FFFFFF" d="M32.5,10.1c0-0.4-0.2-0.7-0.5-0.7h-0.3c-0.3,0-0.5,0.3-0.5,0.7v0.3c0,0.4,0.2,0.7,0.5,0.7h0.3
				c0.3,0,0.5-0.3,0.5-0.7V10.1z"/>
			<path fill="#FFFFFF" d="M34.6,10.1c0-0.4-0.2-0.7-0.5-0.7h-0.3c-0.3,0-0.5,0.3-0.5,0.7v0.3c0,0.4,0.2,0.7,0.5,0.7H34
				c0.3,0,0.5-0.3,0.5-0.7V10.1z"/>
			<path fill="#FFFFFF" d="M36.7,10.1c0-0.4-0.2-0.7-0.5-0.7h-0.3c-0.3,0-0.5,0.3-0.5,0.7v0.3c0,0.4,0.2,0.7,0.5,0.7h0.3
				c0.3,0,0.5-0.3,0.5-0.7V10.1z"/>
			<path fill="#FFFFFF" d="M38.8,10.1c0-0.4-0.2-0.7-0.5-0.7H38c-0.3,0-0.5,0.3-0.5,0.7v0.3c0,0.4,0.2,0.7,0.5,0.7h0.3
				c0.3,0,0.5-0.3,0.5-0.7V10.1z"/>
			<path fill="#FFFFFF" d="M40.9,10.1c0-0.4-0.2-0.7-0.5-0.7h-0.3c-0.3,0-0.5,0.3-0.5,0.7v0.3c0,0.4,0.2,0.7,0.5,0.7h0.3
				c0.3,0,0.5-0.3,0.5-0.7V10.1z"/>
		</g>
		<g>
			<path fill="#FFFFFF" d="M24.1,26.3c0-0.4-0.2-0.7-0.5-0.7h-0.3c-0.3,0-0.5,0.3-0.5,0.7v0.3c0,0.4,0.2,0.7,0.5,0.7h0.3
				c0.3,0,0.5-0.3,0.5-0.7V26.3z"/>
			<path fill="#FFFFFF" d="M26.2,26.3c0-0.4-0.2-0.7-0.5-0.7h-0.3c-0.3,0-0.5,0.3-0.5,0.7v0.3c0,0.4,0.2,0.7,0.5,0.7h0.3
				c0.3,0,0.5-0.3,0.5-0.7V26.3z"/>
			<path fill="#FFFFFF" d="M28.3,26.3c0-0.4-0.2-0.7-0.5-0.7h-0.3c-0.3,0-0.5,0.3-0.5,0.7v0.3c0,0.4,0.2,0.7,0.5,0.7h0.3
				c0.3,0,0.5-0.3,0.5-0.7V26.3z"/>
			<path fill="#FFFFFF" d="M30.4,26.3c0-0.4-0.2-0.7-0.5-0.7h-0.3c-0.3,0-0.5,0.3-0.5,0.7v0.3c0,0.4,0.2,0.7,0.5,0.7h0.3
				c0.3,0,0.5-0.3,0.5-0.7V26.3z"/>
			<path fill="#FFFFFF" d="M32.5,26.3c0-0.4-0.2-0.7-0.5-0.7h-0.3c-0.3,0-0.5,0.3-0.5,0.7v0.3c0,0.4,0.2,0.7,0.5,0.7h0.3
				c0.3,0,0.5-0.3,0.5-0.7V26.3z"/>
			<path fill="#FFFFFF" d="M34.6,26.3c0-0.4-0.2-0.7-0.5-0.7h-0.3c-0.3,0-0.5,0.3-0.5,0.7v0.3c0,0.4,0.2,0.7,0.5,0.7H34
				c0.3,0,0.5-0.3,0.5-0.7V26.3z"/>
			<path fill="#FFFFFF" d="M36.7,26.3c0-0.4-0.2-0.7-0.5-0.7h-0.3c-0.3,0-0.5,0.3-0.5,0.7v0.3c0,0.4,0.2,0.7,0.5,0.7h0.3
				c0.3,0,0.5-0.3,0.5-0.7V26.3z"/>
			<path fill="#FFFFFF" d="M38.8,26.3c0-0.4-0.2-0.7-0.5-0.7H38c-0.3,0-0.5,0.3-0.5,0.7v0.3c0,0.4,0.2,0.7,0.5,0.7h0.3
				c0.3,0,0.5-0.3,0.5-0.7V26.3z"/>
			<path fill="#FFFFFF" d="M40.9,26.3c0-0.4-0.2-0.7-0.5-0.7h-0.3c-0.3,0-0.5,0.3-0.5,0.7v0.3c0,0.4,0.2,0.7,0.5,0.7h0.3
				c0.3,0,0.5-0.3,0.5-0.7V26.3z"/>
		</g>
	</g>
</g>
<path fill="#FF884D" d="M33.7,18.7l-3.4,2.5c-0.1,0.1-0.2,0.1-0.2,0.1c-0.1,0-0.1,0-0.2,0c-0.1-0.1-0.2-0.2-0.2-0.4v-4.9
	c0-0.2,0.1-0.3,0.2-0.4c0.1-0.1,0.3-0.1,0.4,0l3.4,2.5c0.1,0.1,0.2,0.2,0.2,0.3C33.9,18.5,33.8,18.6,33.7,18.7z"/>
<path fill="#273A45" d="M25.6,16.9H14.4c-0.7,0-1.2,0.6-1.2,1.3v15.6c-1.4-0.9-3.3-0.5-4.7,1c-1.6,1.7-1.8,4.3-0.5,5.7
	c1.3,1.4,3.7,1.2,5.3-0.6c0.9-1,1.3-2.2,1.4-3.3c0-0.1,0-0.2,0-0.2v-15h10.7v7.1c-1.4-0.8-3.3-0.5-4.7,1c-1.6,1.7-1.8,4.3-0.5,5.7
	c1.3,1.4,3.7,1.2,5.3-0.6c0.9-0.9,1.3-2.1,1.4-3.2c0,0,0-0.1,0-0.1V18.2C26.8,17.5,26.2,16.9,25.6,16.9 M24.7,20.7h-9.3
	c-0.4,0-0.7-0.4-0.7-0.8c0-0.4,0.3-0.8,0.7-0.8h9.3c0.4,0,0.7,0.4,0.7,0.8C25.4,20.3,25.1,20.7,24.7,20.7"/>
</svg>
