<?xml version="1.0" encoding="utf-8"?>
<!-- Generator: Adobe Illustrator 18.0.0, SVG Export Plug-In . SVG Version: 6.00 Build 0)  -->
<!DOCTYPE svg PUBLIC "-//W3C//DTD SVG 1.1//EN" "http://www.w3.org/Graphics/SVG/1.1/DTD/svg11.dtd">
<svg version="1.1" id="Layer_1" xmlns="http://www.w3.org/2000/svg" xmlns:xlink="http://www.w3.org/1999/xlink" x="0px" y="0px"
	 viewBox="0 0 100 100" enable-background="new 0 0 100 100" xml:space="preserve">
<g>
	<path fill="#41C3AC" d="M59,73.7c-1.4,2.3-3.2,2.8-5.6,1.5c-2.3-1.3-4.7-1.3-7,0c-2.3,1.3-4.2,0.8-5.6-1.5
		c-1.4-2.3-3.1-3.5-5.8-3.5c-0.5,0,0-0.1-1-0.2v29.3l15.8-12.7L67,99.3V70c-1,0.1-1.1,0.2-1.6,0.2C62.7,70.2,60.4,71.4,59,73.7z"/>
	<path fill="#41C3AC" d="M40.8,18.3c1.4-2.3,3.2-2.8,5.6-1.5c2.3,1.3,4.7,1.3,7,0c2.3-1.3,4.2-0.8,5.6,1.5c1.4,2.3,3.2,3.5,5.9,3.5
		c0.9,0,2.1,0.2,2.1,0.5V1H34v21.3c0-0.3,0.6-0.5,1.5-0.5C38.2,21.8,39.5,20.6,40.8,18.3z"/>
	<path fill="#32526E" d="M74.3,49.5c-1.3-2.3-1.4-4.7-0.1-7c1.3-2.3,0.8-4.2-1.5-5.6c-2.3-1.4-3.5-3.4-3.5-6.1
		c0-1.8-0.6-2.9-1.8-3.6c-0.6-0.3-1.4-0.5-2.3-0.5c-2.7,0-4.7-1.2-6.1-3.5c-1.4-2.3-3.2-2.8-5.6-1.5c-2.3,1.3-4.7,1.3-7,0
		c-2.3-1.3-4.2-0.8-5.6,1.5c-1.4,2.3-3.4,3.5-6.1,3.5c-0.9,0-1.7,0.2-2.3,0.5c-1.1,0.6-1.7,1.8-1.8,3.5c0,2.7-1.2,4.7-3.5,6.1
		c-2.3,1.4-2.8,3.2-1.5,5.6c1.3,2.3,1.3,4.7,0,7c-1.3,2.3-0.8,4.2,1.5,5.6c2.3,1.4,3,3.4,3,6.1c0,2.2,2.3,3.5,2.3,3.9
		c1.7,0.1,1.3,0.2,1.8,0.2c2.7,0,5,1.2,6.3,3.5c1.4,2.3,3.4,2.8,5.7,1.5c2.3-1.3,4.7-1.3,7.1,0c2.3,1.3,4.2,0.8,5.6-1.5
		c1.4-2.3,3.9-3.5,6.6-3.5c0.5,0,0.2-0.1,1.8-0.2c0-0.4,2.2-1.7,2.3-3.9c0-2.7,1-4.7,3.3-6.1C75.2,53.7,75.6,51.8,74.3,49.5z"/>
	<g id="STAR_1_" enable-background="new    ">
		<g id="STAR">
			<g>
				<path fill="#FFFFFF" d="M64.5,43.1c0-0.8-0.6-1.4-1.4-1.4h-9l-2.8-8.6c-0.2-0.6-0.7-1-1.3-1c-0.6,0-1.1,0.4-1.3,1l-2.8,8.6h-9
					c-0.8,0-1.4,0.6-1.4,1.4c0,0.5,0.2,0.9,0.6,1.1l0,0l7.3,5.3L40.6,58c0,0.1-0.1,0.3-0.1,0.4c0,0.8,0.6,1.4,1.4,1.4
					c0.3,0,0.6-0.1,0.8-0.3h0l7.4-5.3l7.4,5.3h0c0.2,0.2,0.5,0.3,0.8,0.3c0.8,0,1.4-0.6,1.4-1.4c0-0.1,0-0.3-0.1-0.4l-2.8-8.6
					l7.3-5.3l0,0C64.3,43.9,64.5,43.5,64.5,43.1z"/>
			</g>
		</g>
	</g>
</g>
</svg>
