<?xml version="1.0" encoding="UTF-8" standalone="no"?>
<!-- Created with Inkscape (http://www.inkscape.org/) -->

<svg
   xmlns:dc="http://purl.org/dc/elements/1.1/"
   xmlns:cc="http://creativecommons.org/ns#"
   xmlns:rdf="http://www.w3.org/1999/02/22-rdf-syntax-ns#"
   xmlns:svg="http://www.w3.org/2000/svg"
   xmlns="http://www.w3.org/2000/svg"
   xmlns:sodipodi="http://sodipodi.sourceforge.net/DTD/sodipodi-0.dtd"
   xmlns:inkscape="http://www.inkscape.org/namespaces/inkscape"
   version="1.1"
   width="100%"
   height="100%"
   viewBox="0 0 57.8 50"
   id="Layer_1"
   xml:space="preserve"
   inkscape:version="0.48.5 r10040"
   sodipodi:docname="downgrade1.svg"><defs
     id="defs10" /><sodipodi:namedview
     pagecolor="#ffffff"
     bordercolor="#666666"
     borderopacity="1"
     objecttolerance="10"
     gridtolerance="10"
     guidetolerance="10"
     inkscape:pageopacity="0"
     inkscape:pageshadow="2"
     inkscape:window-width="1013"
     inkscape:window-height="663"
     id="namedview8"
     showgrid="false"
     fit-margin-top="0"
     fit-margin-left="0"
     fit-margin-right="0"
     fit-margin-bottom="0"
     inkscape:zoom="9.53584"
     inkscape:cx="29.021016"
     inkscape:cy="23.220339"
     inkscape:window-x="0"
     inkscape:window-y="22"
     inkscape:window-maximized="0"
     inkscape:current-layer="Layer_1" /><metadata
     id="metadata22"><rdf:RDF><cc:Work
         rdf:about=""><dc:format>image/svg+xml</dc:format><dc:type
           rdf:resource="http://purl.org/dc/dcmitype/StillImage" /><dc:title></dc:title></cc:Work></rdf:RDF></metadata><g
     id="g6"
     transform="matrix(-1,0,0,-1,28.899998,25)"><path
       d="m 0,-25 c -0.9,0 -1.6,0.3 -2.2,0.9 l -19.3,18.6 c 0,0 -7.4,6.6 -7.4,14.8 0,9.7 6.1,15.7 16,15.7 5.2,0 10.1,-3.6 12.9,-6.2 2.9,2.6 7.7,6.2 12.9,6.2 9.9,0 16,-6 16,-15.7 0,-7.1 -5.7,-13.1 -7.4,-14.8 L 2.2,-24.1 C 1.6,-24.7 0.9,-25 0,-25 z m -12.9,47.5 c -8.6,0 -13.5,-4.8 -13.5,-13.2 0,-6.9 6.6,-12.9 6.6,-12.9 l 19.3,-18.7 c 0.2,-0.2 0.4,-0.2 0.5,-0.2 0.1,0 0.3,0 0.5,0.2 l 19.3,18.6 c 1.6,1.5 6.7,6.9 6.7,13 0,8.4 -4.9,13.2 -13.5,13.2 -4.9,0 -9.7,-4 -12.1,-6.3 L 0,15.3 -0.9,16.2 c -2.4,2.3 -7.1,6.3 -12,6.3 z"
       id="path8"
       style="fill:#41c3ac"
       inkscape:connector-curvature="0" /></g><g
     id="g12"
     transform="matrix(-1,0,0,-1,29.02289,24.804497)"><path
       d="m -1.1,16.3 c 2.7,-2.7 5.3,-5.4 8,-8.2 0,0.5 0,1.1 0,1.6 C 3.6,6.8 0.2,4 -3.2,1.1 c -0.4,-0.4 -0.4,-1.2 0,-1.6 2.5,-2.1 5,-4.2 7.5,-6.3 0,0.5 0,1.1 0,1.6 -1.8,-2.1 -3.6,-4.1 -5.4,-6.2 -1,-1.1 0.6,-2.7 1.6,-1.6 1.8,2.1 3.6,4.1 5.4,6.2 0.4,0.4 0.5,1.2 0,1.6 -2.5,2.1 -5,4.2 -7.5,6.3 0,-0.5 0,-1.1 0,-1.6 3.4,2.9 6.8,5.8 10.1,8.6 0.5,0.4 0.5,1.2 0,1.6 -2.7,2.7 -5.3,5.4 -8,8.2 -1,1 -2.6,-0.6 -1.6,-1.6 l 0,0 z"
       id="path14"
       style="fill:#41c3ac"
       inkscape:connector-curvature="0" /></g></svg>