<?xml version="1.0" encoding="utf-8"?>
<!-- Generator: Adobe Illustrator 18.0.0, SVG Export Plug-In . SVG Version: 6.00 Build 0)  -->
<!DOCTYPE svg PUBLIC "-//W3C//DTD SVG 1.1//EN" "http://www.w3.org/Graphics/SVG/1.1/DTD/svg11.dtd">
<svg version="1.1" id="Layer_1" xmlns="http://www.w3.org/2000/svg" xmlns:xlink="http://www.w3.org/1999/xlink" x="0px" y="0px"
	 viewBox="0 0 100 100" enable-background="new 0 0 100 100" xml:space="preserve">
<g>
	<path fill="#32526E" d="M59,73.7c-1.4,2.3-3.2,2.8-5.6,1.5c-2.3-1.3-4.7-1.3-7,0c-2.3,1.3-4.2,0.8-5.6-1.5
		c-1.4-2.3-3.1-3.5-5.8-3.5c-0.5,0,0-0.1-1-0.2v29.3l15.8-12.7L67,99.3V70c-1,0.1-1.1,0.2-1.6,0.2C62.7,70.2,60.4,71.4,59,73.7z"/>
	<path fill="#41C3AC" d="M40.8,18.3c1.4-2.3,3.2-2.8,5.6-1.5c2.3,1.3,4.7,1.3,7,0c2.3-1.3,4.2-0.8,5.6,1.5c1.4,2.3,3.2,3.5,5.9,3.5
		c0.9,0,2.1,0.2,2.1,0.5V1H34v21.3c0-0.3,0.6-0.5,1.5-0.5C38.2,21.8,39.5,20.6,40.8,18.3z"/>
	<path fill="#FF884D" d="M74.3,49.5c-1.3-2.3-1.4-4.7-0.1-7c1.3-2.3,0.8-4.2-1.5-5.6c-2.3-1.4-3.5-3.4-3.5-6.1
		c0-1.8-0.6-2.9-1.8-3.6c-0.6-0.3-1.4-0.5-2.3-0.5c-2.7,0-4.7-1.2-6.1-3.5c-1.4-2.3-3.2-2.8-5.6-1.5c-2.3,1.3-4.7,1.3-7,0
		c-2.3-1.3-4.2-0.8-5.6,1.5c-1.4,2.3-3.4,3.5-6.1,3.5c-0.9,0-1.7,0.2-2.3,0.5c-1.1,0.6-1.7,1.8-1.8,3.5c0,2.7-1.2,4.7-3.5,6.1
		c-2.3,1.4-2.8,3.2-1.5,5.6c1.3,2.3,1.3,4.7,0,7c-1.3,2.3-0.8,4.2,1.5,5.6c2.3,1.4,3,3.4,3,6.1c0,2.2,2.3,3.5,2.3,3.9
		c1.7,0.1,1.3,0.2,1.8,0.2c2.7,0,5,1.2,6.3,3.5c1.4,2.3,3.4,2.8,5.7,1.5c2.3-1.3,4.7-1.3,7.1,0c2.3,1.3,4.2,0.8,5.6-1.5
		c1.4-2.3,3.9-3.5,6.6-3.5c0.5,0,0.2-0.1,1.8-0.2c0-0.4,2.2-1.7,2.3-3.9c0-2.7,1-4.7,3.3-6.1C75.2,53.7,75.6,51.8,74.3,49.5z"/>
	<g id="Crown">
		<g>
			<path fill="#FFFFFF" d="M63.3,46.1L60.4,39c0.8-0.4,1.4-1.3,1.4-2.3c0-1.4-1.1-2.5-2.5-2.5s-2.5,1.1-2.5,2.5c0,1,0.6,1.8,1.4,2.3
				l-1.9,4.8c-0.9-0.1-1.8-0.2-2.6-0.2l-2.5-6.3c0.8-0.4,1.4-1.3,1.4-2.3c0-1.4-1.1-2.5-2.5-2.5s-2.5,1.1-2.5,2.5
				c0,1,0.6,1.8,1.4,2.3l-2.5,6.3c-0.8,0-1.7,0.1-2.6,0.2L41.9,39c0.8-0.4,1.4-1.3,1.4-2.3c0-1.4-1.1-2.5-2.5-2.5s-2.5,1.1-2.5,2.5
				c0,1,0.6,1.8,1.4,2.3l-2.9,7.2c-0.1,0.2-0.2,0.5-0.2,0.7v9.3c0,3.3,12.1,3.4,13.5,3.4c1.4,0,13.5-0.1,13.5-3.4v-9.3
				C63.5,46.6,63.4,46.4,63.3,46.1z M59.3,35.9c0.5,0,0.8,0.4,0.8,0.8s-0.4,0.8-0.8,0.8s-0.8-0.4-0.8-0.8S58.8,35.9,59.3,35.9z
				 M59.3,40.7l1.6,4C60,44.4,59,44.2,57.9,44L59.3,40.7z M50,34.2c0.5,0,0.8,0.4,0.8,0.8s-0.4,0.8-0.8,0.8s-0.8-0.4-0.8-0.8
				S49.5,34.2,50,34.2z M50,39l1.8,4.5c-0.9,0-1.5,0-1.8,0s-0.9,0-1.8,0L50,39z M40.7,35.9c0.5,0,0.8,0.4,0.8,0.8s-0.4,0.8-0.8,0.8
				s-0.8-0.4-0.8-0.8S40.3,35.9,40.7,35.9z M40.7,40.7l1.3,3.3c-1.1,0.2-2.1,0.4-2.9,0.7L40.7,40.7z M50,57.8
				c-6.9,0-10.9-1-11.7-1.7c0.8-0.6,4.8-1.7,11.7-1.7s10.9,1,11.7,1.7C60.9,56.8,56.9,57.8,50,57.8z M61.8,54.3
				c-3.4-1.5-10.8-1.6-11.8-1.6c-1.1,0-8.4,0.1-11.8,1.6V47l0-0.1c0.7-0.6,4.6-1.7,11.8-1.7s11.1,1.1,11.8,1.7l0,0.1V54.3z
				 M43.3,49.8c-0.5,0.1-0.8,0.5-0.7,0.9c0.1,0.4,0.4,0.7,0.8,0.7h0.1c0.5-0.1,0.8-0.5,0.7-0.9C44.1,50,43.7,49.7,43.3,49.8z
				 M56.7,49.8c-0.5-0.1-0.9,0.3-0.9,0.7c-0.1,0.5,0.3,0.9,0.7,0.9h0.1c0.4,0,0.8-0.3,0.8-0.7C57.5,50.2,57.2,49.8,56.7,49.8z
				 M39.9,50.4c-0.5,0.1-0.7,0.6-0.6,1c0.1,0.4,0.4,0.6,0.8,0.6c0.1,0,0.1,0,0.2,0c0.4-0.1,0.7-0.6,0.6-1
				C40.8,50.5,40.3,50.2,39.9,50.4z M46.6,49.5C46.6,49.5,46.6,49.5,46.6,49.5c-0.5,0-0.8,0.4-0.8,0.9c0,0.4,0.4,0.8,0.8,0.8h0
				c0.5,0,0.8-0.4,0.8-0.9C47.5,49.8,47.1,49.4,46.6,49.5z M50,49.4c-0.5,0-0.9,0.4-0.9,0.8c0,0.5,0.4,0.8,0.9,0.8
				c0.5,0,0.8-0.4,0.8-0.8C50.8,49.8,50.5,49.4,50,49.4z M60.1,50.4c-0.4-0.1-0.9,0.2-1,0.6c-0.1,0.4,0.2,0.9,0.6,1
				c0.1,0,0.1,0,0.2,0c0.4,0,0.7-0.3,0.8-0.6C60.8,50.9,60.6,50.5,60.1,50.4z M53.4,49.5C53.4,49.5,53.4,49.5,53.4,49.5
				c-0.5,0-0.9,0.3-0.9,0.8c0,0.5,0.3,0.9,0.8,0.9h0.1c0.4,0,0.8-0.3,0.8-0.8C54.2,49.9,53.8,49.5,53.4,49.5z M56.7,47.2
				c-0.5-0.1-0.9,0.3-0.9,0.7c-0.1,0.5,0.3,0.9,0.7,0.9h0.1c0.4,0,0.8-0.3,0.8-0.7C57.5,47.7,57.2,47.3,56.7,47.2z M53.4,46.9
				c-0.5,0-0.9,0.3-0.9,0.8c0,0.5,0.3,0.9,0.8,0.9h0c0.4,0,0.8-0.3,0.8-0.8C54.2,47.4,53.8,47,53.4,46.9z M60.1,47.8
				c-0.4-0.1-0.9,0.2-1,0.6c-0.1,0.4,0.2,0.9,0.6,1c0.1,0,0.1,0,0.2,0c0.4,0,0.7-0.3,0.8-0.6C60.8,48.4,60.6,47.9,60.1,47.8z
				 M46.6,46.9c-0.5,0-0.8,0.4-0.8,0.9c0,0.4,0.4,0.8,0.8,0.8h0c0.5,0,0.8-0.4,0.8-0.9C47.5,47.3,47.1,46.9,46.6,46.9z M50,46.8
				C50,46.8,50,46.8,50,46.8c-0.5,0-0.9,0.4-0.8,0.8c0,0.5,0.4,0.8,0.8,0.8c0.5,0,0.8-0.4,0.8-0.8C50.8,47.2,50.5,46.8,50,46.8z
				 M46.6,46.9C46.6,46.9,46.6,46.9,46.6,46.9C46.6,46.9,46.6,46.9,46.6,46.9C46.6,46.9,46.6,46.9,46.6,46.9z M39.9,47.8
				c-0.5,0.1-0.7,0.6-0.6,1c0.1,0.4,0.4,0.6,0.8,0.6c0.1,0,0.1,0,0.2,0c0.4-0.1,0.7-0.6,0.6-1C40.8,48,40.3,47.7,39.9,47.8z
				 M43.3,47.2C43.3,47.2,43.3,47.2,43.3,47.2c-0.5,0.1-0.8,0.5-0.7,0.9c0.1,0.4,0.4,0.7,0.8,0.7h0.1c0.5-0.1,0.8-0.5,0.7-0.9
				C44.1,47.5,43.7,47.2,43.3,47.2z"/>
		</g>
	</g>
</g>
</svg>
