<?xml version="1.0" encoding="utf-8"?>
<!-- Generator: Adobe Illustrator 18.0.0, SVG Export Plug-In . SVG Version: 6.00 Build 0)  -->
<!DOCTYPE svg PUBLIC "-//W3C//DTD SVG 1.1//EN" "http://www.w3.org/Graphics/SVG/1.1/DTD/svg11.dtd">
<svg version="1.1" id="Layer_1" xmlns="http://www.w3.org/2000/svg" xmlns:xlink="http://www.w3.org/1999/xlink" x="0px" y="0px"
	 viewBox="0 0 100 100" enable-background="new 0 0 100 100" xml:space="preserve">
<g>
	<path fill="#41C3AC" d="M59,73.7c-1.4,2.3-3.2,2.8-5.6,1.5c-2.3-1.3-4.7-1.3-7,0c-2.3,1.3-4.2,0.8-5.6-1.5
		c-1.4-2.3-3.1-3.5-5.8-3.5c-0.5,0,0-0.1-1-0.2v29.3l15.8-12.7L67,99.3V70c-1,0.1-1.1,0.2-1.6,0.2C62.7,70.2,60.4,71.4,59,73.7z"/>
	<path fill="#41C3AC" d="M40.8,18.3c1.4-2.3,3.2-2.8,5.6-1.5c2.3,1.3,4.7,1.3,7,0c2.3-1.3,4.2-0.8,5.6,1.5c1.4,2.3,3.2,3.5,5.9,3.5
		c0.9,0,2.1,0.2,2.1,0.5V1H34v21.3c0-0.3,0.6-0.5,1.5-0.5C38.2,21.8,39.5,20.6,40.8,18.3z"/>
	<path fill="#FF6B57" d="M74.3,49.5c-1.3-2.3-1.4-4.7-0.1-7c1.3-2.3,0.8-4.2-1.5-5.6c-2.3-1.4-3.5-3.4-3.5-6.1
		c0-1.8-0.6-2.9-1.8-3.6c-0.6-0.3-1.4-0.5-2.3-0.5c-2.7,0-4.7-1.2-6.1-3.5c-1.4-2.3-3.2-2.8-5.6-1.5c-2.3,1.3-4.7,1.3-7,0
		c-2.3-1.3-4.2-0.8-5.6,1.5c-1.4,2.3-3.4,3.5-6.1,3.5c-0.9,0-1.7,0.2-2.3,0.5c-1.1,0.6-1.7,1.8-1.8,3.5c0,2.7-1.2,4.7-3.5,6.1
		c-2.3,1.4-2.8,3.2-1.5,5.6c1.3,2.3,1.3,4.7,0,7c-1.3,2.3-0.8,4.2,1.5,5.6c2.3,1.4,3,3.4,3,6.1c0,2.2,2.3,3.5,2.3,3.9
		c1.7,0.1,1.3,0.2,1.8,0.2c2.7,0,5,1.2,6.3,3.5c1.4,2.3,3.4,2.8,5.7,1.5c2.3-1.3,4.7-1.3,7.1,0c2.3,1.3,4.2,0.8,5.6-1.5
		c1.4-2.3,3.9-3.5,6.6-3.5c0.5,0,0.2-0.1,1.8-0.2c0-0.4,2.2-1.7,2.3-3.9c0-2.7,1-4.7,3.3-6.1C75.2,53.7,75.6,51.8,74.3,49.5z"/>
	<g id="Diamond">
		<g>
			<path fill="#FFFFFF" d="M64,43.4C64,43.4,64,43.4,64,43.4c0-0.2-0.1-0.4-0.2-0.5l-6.9-9.5c0-0.1-0.1-0.1-0.2-0.2c0,0,0,0,0,0
				c-0.1-0.1-0.2-0.1-0.3-0.1c0,0,0,0,0,0c0,0,0,0,0,0c-0.1,0-0.1,0-0.2,0H43.9c-0.1,0-0.1,0-0.2,0c0,0,0,0,0,0c0,0,0,0,0,0
				c-0.1,0-0.2,0.1-0.3,0.1c0,0,0,0,0,0c-0.1,0.1-0.1,0.1-0.2,0.2l-7,9.6c0,0,0,0,0,0.1c0,0,0,0,0,0.1c0,0,0,0,0,0c0,0,0,0.1,0,0.1
				c0,0,0,0.1,0,0.1c0,0,0,0.1,0,0.1c0,0,0,0.1,0,0.1c0,0,0,0.1,0,0.1c0,0,0,0.1,0,0.1c0,0,0,0,0,0c0,0,0,0,0.1,0.1c0,0,0,0.1,0,0.1
				l13.1,16.6c0,0,0,0,0.1,0c0,0,0.1,0.1,0.1,0.1c0,0,0,0,0.1,0c0,0,0,0,0,0c0,0,0.1,0,0.1,0c0,0,0.1,0,0.1,0c0,0,0,0,0,0
				c0.1,0,0.1,0,0.2,0c0,0,0,0,0,0h0c0,0,0,0,0,0c0.1,0,0.1,0,0.2,0c0,0,0,0,0,0c0,0,0.1,0,0.1,0c0,0,0.1,0,0.1,0c0,0,0,0,0,0
				c0,0,0,0,0.1,0c0,0,0.1-0.1,0.1-0.1c0,0,0,0,0.1,0l13.1-16.5c0.2-0.2,0.3-0.4,0.3-0.6C64,43.5,64,43.4,64,43.4z M55,34.8
				l-1.8,7.9h-6.4L45,34.8H55z M43.4,35.9l1.6,6.7h-6.4L43.4,35.9z M38.7,44.4h6.7l2.8,12.1L38.7,44.4z M50,56.3l-2.8-11.9h5.6
				L50,56.3z M51.7,56.5l2.8-12.1h6.7L51.7,56.5z M55,42.6l1.6-6.7l4.9,6.7H55z"/>
		</g>
	</g>
</g>
</svg>
