<?xml version="1.0" encoding="utf-8"?>
<!-- Generator: Adobe Illustrator 16.0.0, SVG Export Plug-In . SVG Version: 6.00 Build 0)  -->
<!DOCTYPE svg PUBLIC "-//W3C//DTD SVG 1.1//EN" "http://www.w3.org/Graphics/SVG/1.1/DTD/svg11.dtd">
<svg version="1.1" id="Layer_1" xmlns="http://www.w3.org/2000/svg" xmlns:xlink="http://www.w3.org/1999/xlink" x="0px" y="0px"
	 width="612px" height="792px" viewBox="0 0 612 792" enable-background="new 0 0 612 792" xml:space="preserve">
<g>
	<path fill="#FFFFFF" d="M361.08,541.044c-8.568,14.076-19.584,17.136-34.272,9.18c-14.075-7.956-28.764-7.956-42.84,0
		c-14.076,7.956-25.704,4.896-34.272-9.18c-8.568-14.076-18.972-21.42-35.496-21.42c-3.06,0,0-0.612-6.12-1.224v179.315
		l96.696-77.724l105.264,77.724V518.4c-6.12,0.611-6.732,1.224-9.792,1.224C383.724,519.624,369.648,526.968,361.08,541.044z"/>
	<path fill="#FFFFFF" d="M249.696,201.996c8.568-14.076,19.584-17.136,34.272-9.18c14.076,7.956,28.765,7.956,42.84,0
		c14.076-7.956,25.704-4.896,34.272,9.18s19.584,21.42,36.107,21.42c5.509,0,12.853,1.224,12.853,3.06V96.12H208.08v130.356
		c0-1.836,3.672-3.06,9.18-3.06C233.784,223.416,241.74,216.072,249.696,201.996z"/>
	<path fill="#FF6B57" d="M454.716,392.94c-7.956-14.076-8.567-28.764-0.611-42.84c7.955-14.076,4.896-25.704-9.181-34.272
		c-14.076-8.568-21.42-20.808-21.42-37.332c0-11.016-3.672-17.748-11.016-22.032c-3.672-1.836-8.568-3.06-14.076-3.06
		c-16.524,0-28.764-7.344-37.332-21.42c-8.568-14.076-19.584-17.136-34.272-9.18c-14.075,7.956-28.764,7.956-42.84,0
		c-14.076-7.956-25.704-4.896-34.272,9.18c-8.568,14.076-20.808,21.42-37.332,21.42c-5.508,0-10.404,1.224-14.076,3.06
		c-6.732,3.672-10.404,11.016-11.016,21.42c0,16.524-7.344,28.764-21.42,37.332c-14.076,8.568-17.136,19.584-9.18,34.272
		c7.956,14.076,7.956,28.764,0,42.84s-4.896,25.704,9.18,34.271c14.076,8.568,18.36,20.809,18.36,37.332
		c0,13.464,14.076,21.42,14.076,23.868c10.404,0.612,7.956,1.224,11.016,1.224c16.524,0,30.6,7.345,38.556,21.421
		c8.568,14.075,20.808,17.136,34.884,9.18c14.076-7.956,28.764-7.956,43.452,0c14.076,7.956,25.704,4.896,34.271-9.18
		c8.568-14.076,23.868-21.421,40.393-21.421c3.06,0,1.224-0.611,11.016-1.224c0-2.448,13.464-10.404,14.076-23.868
		c0-16.523,6.12-28.764,20.196-37.332C460.224,418.645,462.672,407.016,454.716,392.94z"/>
	<g id="Diamond">
		<g>
			<path fill="#FFFFFF" d="M391.68,355.608L391.68,355.608c0-1.224-0.611-2.448-1.224-3.06l-42.229-58.14
				c0-0.612-0.611-0.612-1.224-1.224l0,0c-0.612-0.612-1.224-0.612-1.836-0.612l0,0l0,0c-0.612,0-0.612,0-1.224,0h-75.276
				c-0.612,0-0.612,0-1.224,0l0,0l0,0c-0.612,0-1.224,0.612-1.836,0.612l0,0c-0.612,0.612-0.612,0.612-1.224,1.224l-42.84,58.752
				c0,0,0,0,0,0.612c0,0,0,0,0,0.612l0,0v0.612v0.612v0.612v0.612v0.612v0.612l0,0c0,0,0,0,0.612,0.612v0.612l80.172,101.592
				c0,0,0,0,0.612,0l0.611,0.612c0,0,0,0,0.612,0l0,0h0.612h0.611l0,0c0.612,0,0.612,0,1.225,0l0,0l0,0l0,0c0.611,0,0.611,0,1.224,0
				l0,0h0.612h0.611l0,0c0,0,0,0,0.612,0l0.612-0.612c0,0,0,0,0.611,0l80.173-100.98c1.224-1.224,1.836-2.448,1.836-3.672
				C391.68,356.22,391.68,355.608,391.68,355.608z M336.6,302.976l-11.016,48.348h-39.168L275.4,302.976H336.6z M265.608,309.708
				l9.792,41.004h-39.168L265.608,309.708z M236.844,361.728h41.004l17.136,74.052L236.844,361.728z M306,434.556l-17.136-72.828
				h34.271L306,434.556z M316.404,435.78l17.136-74.052h41.004L316.404,435.78z M336.6,350.712l9.792-41.004l29.988,41.004H336.6z"
				/>
		</g>
	</g>
</g>
</svg>
