<?xml version="1.0" encoding="utf-8"?>
<!-- Generator: Adobe Illustrator 16.0.0, SVG Export Plug-In . SVG Version: 6.00 Build 0)  -->
<!DOCTYPE svg PUBLIC "-//W3C//DTD SVG 1.1//EN" "http://www.w3.org/Graphics/SVG/1.1/DTD/svg11.dtd">
<svg version="1.1" id="Layer_1" xmlns="http://www.w3.org/2000/svg" xmlns:xlink="http://www.w3.org/1999/xlink" x="0px" y="0px"
	 width="612px" height="792px" viewBox="0 0 612 792" enable-background="new 0 0 612 792" xml:space="preserve">
<g>
	<path fill="#FFFFFF" d="M361.08,541.044c-8.568,14.076-19.584,17.136-34.272,9.18c-14.075-7.956-28.764-7.956-42.84,0
		c-14.076,7.956-25.704,4.896-34.272-9.18c-8.568-14.076-18.972-21.42-35.496-21.42c-3.06,0,0-0.612-6.12-1.224v179.315
		l96.696-77.724l105.264,77.724V518.4c-6.12,0.611-6.732,1.224-9.792,1.224C383.724,519.624,369.648,526.968,361.08,541.044z"/>
	<path fill="#FFFFFF" d="M249.696,201.996c8.568-14.076,19.584-17.136,34.272-9.18c14.076,7.956,28.765,7.956,42.84,0
		c14.076-7.956,25.704-4.896,34.272,9.18s19.584,21.42,36.107,21.42c5.509,0,12.853,1.224,12.853,3.06V96.12H208.08v130.356
		c0-1.836,3.672-3.06,9.18-3.06C233.784,223.416,241.74,216.072,249.696,201.996z"/>
	<path fill="#32526E" d="M454.716,392.94c-7.956-14.076-8.567-28.764-0.611-42.84c7.955-14.076,4.896-25.704-9.181-34.272
		c-14.076-8.568-21.42-20.808-21.42-37.332c0-11.016-3.672-17.748-11.016-22.032c-3.672-1.836-8.568-3.06-14.076-3.06
		c-16.524,0-28.764-7.344-37.332-21.42c-8.568-14.076-19.584-17.136-34.272-9.18c-14.075,7.956-28.764,7.956-42.84,0
		c-14.076-7.956-25.704-4.896-34.272,9.18c-8.568,14.076-20.808,21.42-37.332,21.42c-5.508,0-10.404,1.224-14.076,3.06
		c-6.732,3.672-10.404,11.016-11.016,21.42c0,16.524-7.344,28.764-21.42,37.332c-14.076,8.568-17.136,19.584-9.18,34.272
		c7.956,14.076,7.956,28.764,0,42.84s-4.896,25.704,9.18,34.271c14.076,8.568,18.36,20.809,18.36,37.332
		c0,13.464,14.076,21.42,14.076,23.868c10.404,0.612,7.956,1.224,11.016,1.224c16.524,0,30.6,7.345,38.556,21.421
		c8.568,14.075,20.808,17.136,34.884,9.18c14.076-7.956,28.764-7.956,43.452,0c14.076,7.956,25.704,4.896,34.271-9.18
		c8.568-14.076,23.868-21.421,40.393-21.421c3.06,0,1.224-0.611,11.016-1.224c0-2.448,13.464-10.404,14.076-23.868
		c0-16.523,6.12-28.764,20.196-37.332C460.224,418.645,462.672,407.016,454.716,392.94z"/>
	<g id="STAR_1_" enable-background="new    ">
		<g id="STAR">
			<g>
				<path fill="#FFFFFF" d="M394.74,353.772c0-4.896-3.672-8.568-8.568-8.568h-55.08l-17.136-52.632
					c-1.224-3.672-4.284-6.12-7.956-6.12s-6.732,2.448-7.956,6.12l-17.136,52.632h-55.08c-4.896,0-8.568,3.672-8.568,8.568
					c0,3.06,1.224,5.508,3.672,6.732l0,0l44.676,32.436l-17.136,52.02c0,0.612-0.612,1.836-0.612,2.448
					c0,4.896,3.672,8.567,8.568,8.567c1.836,0,3.672-0.611,4.896-1.836l0,0l45.288-32.436L351.9,454.14l0,0
					c1.224,1.225,3.06,1.836,4.896,1.836c4.896,0,8.568-3.672,8.568-8.567c0-0.612,0-1.836-0.612-2.448l-17.136-52.632
					l44.676-32.436l0,0C393.516,358.668,394.74,356.22,394.74,353.772z"/>
			</g>
		</g>
	</g>
</g>
</svg>
