<?xml version="1.0" encoding="utf-8"?>
<!-- Generator: Adobe Illustrator 16.0.0, SVG Export Plug-In . SVG Version: 6.00 Build 0)  -->
<!DOCTYPE svg PUBLIC "-//W3C//DTD SVG 1.1//EN" "http://www.w3.org/Graphics/SVG/1.1/DTD/svg11.dtd">
<svg version="1.1" id="Layer_1" xmlns="http://www.w3.org/2000/svg" xmlns:xlink="http://www.w3.org/1999/xlink" x="0px" y="0px"
	 width="612px" height="792px" viewBox="0 0 612 792" enable-background="new 0 0 612 792" xml:space="preserve">
<g>
	<path fill="#FFFFFF" d="M361.08,541.044c-8.568,14.076-19.584,17.136-34.272,9.18c-14.075-7.956-28.764-7.956-42.84,0
		c-14.076,7.956-25.704,4.896-34.272-9.18c-8.568-14.076-18.972-21.42-35.496-21.42c-3.06,0,0-0.612-6.12-1.224v179.315
		l96.696-77.724l105.264,77.724V518.4c-6.12,0.611-6.732,1.224-9.792,1.224C383.724,519.624,369.648,526.968,361.08,541.044z"/>
	<path fill="#FFFFFF" d="M249.696,201.996c8.568-14.076,19.584-17.136,34.272-9.18c14.076,7.956,28.765,7.956,42.84,0
		c14.076-7.956,25.704-4.896,34.272,9.18s19.584,21.42,36.107,21.42c5.509,0,12.853,1.224,12.853,3.06V96.12H208.08v130.356
		c0-1.836,3.672-3.06,9.18-3.06C233.784,223.416,241.74,216.072,249.696,201.996z"/>
	<path fill="#FF884D" d="M454.716,392.94c-7.956-14.076-8.567-28.764-0.611-42.84c7.955-14.076,4.896-25.704-9.181-34.272
		c-14.076-8.568-21.42-20.808-21.42-37.332c0-11.016-3.672-17.748-11.016-22.032c-3.672-1.836-8.568-3.06-14.076-3.06
		c-16.524,0-28.764-7.344-37.332-21.42c-8.568-14.076-19.584-17.136-34.272-9.18c-14.075,7.956-28.764,7.956-42.84,0
		c-14.076-7.956-25.704-4.896-34.272,9.18c-8.568,14.076-20.808,21.42-37.332,21.42c-5.508,0-10.404,1.224-14.076,3.06
		c-6.732,3.672-10.404,11.016-11.016,21.42c0,16.524-7.344,28.764-21.42,37.332c-14.076,8.568-17.136,19.584-9.18,34.272
		c7.956,14.076,7.956,28.764,0,42.84s-4.896,25.704,9.18,34.271c14.076,8.568,18.36,20.809,18.36,37.332
		c0,13.464,14.076,21.42,14.076,23.868c10.404,0.612,7.956,1.224,11.016,1.224c16.524,0,30.6,7.345,38.556,21.421
		c8.568,14.075,20.808,17.136,34.884,9.18c14.076-7.956,28.764-7.956,43.452,0c14.076,7.956,25.704,4.896,34.271-9.18
		c8.568-14.076,23.868-21.421,40.393-21.421c3.06,0,1.224-0.611,11.016-1.224c0-2.448,13.464-10.404,14.076-23.868
		c0-16.523,6.12-28.764,20.196-37.332C460.224,418.645,462.672,407.016,454.716,392.94z"/>
	<g id="Crown">
		<g>
			<path fill="#FFFFFF" d="M387.396,372.132l-17.748-43.452c4.896-2.448,8.567-7.956,8.567-14.076c0-8.568-6.731-15.3-15.3-15.3
				s-15.3,6.732-15.3,15.3c0,6.12,3.672,11.016,8.567,14.076l-11.628,29.376c-5.508-0.612-11.016-1.224-15.912-1.224l-15.3-38.556
				c4.896-2.448,8.568-7.956,8.568-14.076c0-8.568-6.732-15.3-15.3-15.3c-8.568,0-15.3,6.732-15.3,15.3
				c0,6.12,3.672,11.016,8.568,14.076l-15.3,38.556c-4.896,0-10.404,0.612-15.912,1.224l-12.24-29.376
				c4.896-2.448,8.568-7.956,8.568-14.076c0-8.568-6.732-15.3-15.3-15.3c-8.568,0-15.3,6.732-15.3,15.3
				c0,6.12,3.672,11.016,8.568,14.076l-17.748,44.064c-0.612,1.224-1.224,3.06-1.224,4.284v56.917
				c0,20.195,74.052,20.808,82.62,20.808c8.567,0,82.62-0.612,82.62-20.808v-56.917C388.62,375.192,388.008,373.968,387.396,372.132
				z M362.916,309.708c3.06,0,4.896,2.448,4.896,4.896s-2.447,4.896-4.896,4.896s-4.896-2.448-4.896-4.896
				S359.856,309.708,362.916,309.708z M362.916,339.084l9.792,24.48c-5.508-1.836-11.628-3.06-18.36-4.284L362.916,339.084z
				 M306,299.304c3.06,0,4.896,2.448,4.896,4.896c0,2.448-2.448,4.896-4.896,4.896s-4.896-2.448-4.896-4.896
				C301.104,301.752,302.94,299.304,306,299.304z M306,328.68l11.016,27.54c-5.508,0-9.18,0-11.016,0s-5.508,0-11.016,0L306,328.68z
				 M249.084,309.708c3.06,0,4.896,2.448,4.896,4.896s-2.448,4.896-4.896,4.896c-2.448,0-4.896-2.448-4.896-4.896
				S246.636,309.708,249.084,309.708z M249.084,339.084l7.956,20.196c-6.732,1.224-12.852,2.448-17.748,4.284L249.084,339.084z
				 M306,443.736c-42.228,0-66.708-6.12-71.604-10.404c4.896-3.672,29.376-10.404,71.604-10.404c42.228,0,66.708,6.12,71.604,10.404
				C372.708,437.616,348.228,443.736,306,443.736z M378.216,422.316c-20.808-9.181-66.096-9.793-72.216-9.793
				c-6.732,0-51.408,0.612-72.216,9.793V377.64v-0.612c4.284-3.672,28.152-10.404,72.216-10.404
				c44.064,0,67.932,6.732,72.216,10.404v0.612V422.316z M264.996,394.776c-3.06,0.612-4.896,3.06-4.284,5.508
				c0.612,2.448,2.448,4.284,4.896,4.284h0.612c3.06-0.612,4.896-3.061,4.284-5.508C269.892,396,267.444,394.164,264.996,394.776z
				 M347.004,394.776c-3.06-0.612-5.508,1.835-5.508,4.285c-0.612,3.06,1.836,5.508,4.284,5.508h0.611
				c2.448,0,4.896-1.836,4.896-4.284C351.9,397.225,350.064,394.776,347.004,394.776z M244.188,398.448
				c-3.06,0.612-4.284,3.672-3.672,6.12c0.612,2.447,2.448,3.672,4.896,3.672c0.612,0,0.612,0,1.224,0
				c2.448-0.612,4.284-3.672,3.672-6.12C249.696,399.061,246.636,397.225,244.188,398.448z M285.192,392.94L285.192,392.94
				c-3.06,0-4.896,2.448-4.896,5.508c0,2.448,2.448,4.896,4.896,4.896l0,0c3.06,0,4.896-2.447,4.896-5.508
				C290.7,394.776,288.252,392.328,285.192,392.94z M306,392.328c-3.06,0-5.508,2.448-5.508,4.896c0,3.06,2.448,4.896,5.508,4.896
				s4.896-2.448,4.896-4.896C310.896,394.776,309.06,392.328,306,392.328z M367.812,398.448c-2.447-0.612-5.508,1.224-6.119,3.672
				c-0.612,2.448,1.224,5.508,3.672,6.12c0.611,0,0.611,0,1.224,0c2.448,0,4.284-1.836,4.896-3.672
				C372.096,401.508,370.872,399.061,367.812,398.448z M326.808,392.94L326.808,392.94c-3.06,0-5.508,1.836-5.508,4.896
				c0,3.061,1.836,5.508,4.896,5.508h0.611c2.448,0,4.896-1.836,4.896-4.896C331.704,395.388,329.256,392.94,326.808,392.94z
				 M347.004,378.864c-3.06-0.612-5.508,1.836-5.508,4.284c-0.612,3.06,1.836,5.508,4.284,5.508h0.611
				c2.448,0,4.896-1.836,4.896-4.284C351.9,381.924,350.064,379.476,347.004,378.864z M326.808,377.028
				c-3.06,0-5.508,1.836-5.508,4.896c0,3.06,1.836,5.508,4.896,5.508l0,0c2.447,0,4.896-1.836,4.896-4.896
				C331.704,380.088,329.256,377.64,326.808,377.028z M367.812,382.536c-2.447-0.612-5.508,1.224-6.119,3.672
				c-0.612,2.448,1.224,5.508,3.672,6.12c0.611,0,0.611,0,1.224,0c2.448,0,4.284-1.836,4.896-3.672
				C372.096,386.208,370.872,383.148,367.812,382.536z M285.192,377.028c-3.06,0-4.896,2.448-4.896,5.508
				c0,2.448,2.448,4.896,4.896,4.896l0,0c3.06,0,4.896-2.448,4.896-5.508C290.7,379.476,288.252,377.028,285.192,377.028z
				 M306,376.416L306,376.416c-3.06,0-5.508,2.448-4.896,4.896c0,3.06,2.448,4.896,4.896,4.896c3.06,0,4.896-2.448,4.896-4.896
				S309.06,376.416,306,376.416z M285.192,377.028L285.192,377.028L285.192,377.028L285.192,377.028z M244.188,382.536
				c-3.06,0.612-4.284,3.672-3.672,6.12c0.612,2.448,2.448,3.672,4.896,3.672c0.612,0,0.612,0,1.224,0
				c2.448-0.612,4.284-3.672,3.672-6.12C249.696,383.76,246.636,381.924,244.188,382.536z M264.996,378.864L264.996,378.864
				c-3.06,0.612-4.896,3.06-4.284,5.508c0.612,2.448,2.448,4.284,4.896,4.284h0.612c3.06-0.612,4.896-3.06,4.284-5.508
				C269.892,380.7,267.444,378.864,264.996,378.864z"/>
		</g>
	</g>
</g>
</svg>
