<?xml version="1.0" encoding="utf-8"?>
<!-- Generator: Adobe Illustrator 16.0.0, SVG Export Plug-In . SVG Version: 6.00 Build 0)  -->
<!DOCTYPE svg PUBLIC "-//W3C//DTD SVG 1.1//EN" "http://www.w3.org/Graphics/SVG/1.1/DTD/svg11.dtd">
<svg version="1.1" id="Layer_1" xmlns="http://www.w3.org/2000/svg" xmlns:xlink="http://www.w3.org/1999/xlink" x="0px" y="0px"
	 width="612px" height="792px" viewBox="0 0 612 792" enable-background="new 0 0 612 792" xml:space="preserve">
<g>
	<path fill="#FFFFFF" d="M361.08,541.044c-8.568,14.076-19.584,17.136-34.272,9.18c-14.075-7.956-28.764-7.956-42.84,0
		c-14.076,7.956-25.704,4.896-34.272-9.18c-8.568-14.076-18.972-21.42-35.496-21.42c-3.06,0,0-0.612-6.12-1.224v179.315
		l96.696-77.724l105.264,77.724V518.4c-6.12,0.611-6.732,1.224-9.792,1.224C383.724,519.624,369.648,526.968,361.08,541.044z"/>
	<path fill="#FFFFFF" d="M249.696,201.996c8.568-14.076,19.584-17.136,34.272-9.18c14.076,7.956,28.765,7.956,42.84,0
		c14.076-7.956,25.704-4.896,34.272,9.18s19.584,21.42,36.107,21.42c5.509,0,12.853,1.224,12.853,3.06V96.12H208.08v130.356
		c0-1.836,3.672-3.06,9.18-3.06C233.784,223.416,241.74,216.072,249.696,201.996z"/>
	<path fill="#FF884D" d="M454.716,392.94c-7.956-14.076-8.567-28.764-0.611-42.84c7.955-14.076,4.896-25.704-9.181-34.272
		c-14.076-8.568-21.42-20.808-21.42-37.332c0-11.016-3.672-17.748-11.016-22.032c-3.672-1.836-8.568-3.06-14.076-3.06
		c-16.524,0-28.764-7.344-37.332-21.42c-8.568-14.076-19.584-17.136-34.272-9.18c-14.075,7.956-28.764,7.956-42.84,0
		c-14.076-7.956-25.704-4.896-34.272,9.18c-8.568,14.076-20.808,21.42-37.332,21.42c-5.508,0-10.404,1.224-14.076,3.06
		c-6.732,3.672-10.404,11.016-11.016,21.42c0,16.524-7.344,28.764-21.42,37.332c-14.076,8.568-17.136,19.584-9.18,34.272
		c7.956,14.076,7.956,28.764,0,42.84s-4.896,25.704,9.18,34.271c14.076,8.568,18.36,20.809,18.36,37.332
		c0,13.464,14.076,21.42,14.076,23.868c10.404,0.612,7.956,1.224,11.016,1.224c16.524,0,30.6,7.345,38.556,21.421
		c8.568,14.075,20.808,17.136,34.884,9.18c14.076-7.956,28.764-7.956,43.452,0c14.076,7.956,25.704,4.896,34.271-9.18
		c8.568-14.076,23.868-21.421,40.393-21.421c3.06,0,1.224-0.611,11.016-1.224c0-2.448,13.464-10.404,14.076-23.868
		c0-16.523,6.12-28.764,20.196-37.332C460.224,418.645,462.672,407.016,454.716,392.94z"/>
	<g id="Diamond_6_">
		<g>
			<path fill="#FFFFFF" d="M373.932,390.492L373.932,390.492c0-1.224-0.611-1.836-1.224-2.448l-33.048-45.9
				c0-0.612-0.612-0.612-0.612-0.612l0,0c-0.612,0-0.612-0.612-1.224-0.612l0,0l0,0c0,0-0.612,0-1.225,0h-58.751
				c-0.612,0-0.612,0-1.224,0l0,0l0,0c-0.612,0-1.224,0.612-1.224,0.612l0,0c-0.612,0-0.612,0.612-0.612,0.612l-33.66,46.512
				c0,0,0,0,0,0.612c0,0,0,0,0,0.612l0,0v0.612v0.612v0.612v0.612v0.612v0.612l0,0c0,0,0,0,0,0.612c0,0,0,0,0,0.612l63.036,80.172
				l0,0l0.612,0.611c0,0,0,0,0.611,0l0,0c0,0,0,0,0.612,0h0.612l0,0c0.611,0,0.611,0,1.224,0l0,0l0,0l0,0c0.612,0,0.612,0,1.224,0
				l0,0h0.612c0,0,0,0,0.612,0l0,0c0,0,0,0,0.611,0l0.612-0.611l0,0l63.036-79.561c0.612-0.612,1.224-1.836,1.224-3.06
				C374.544,391.104,373.932,391.104,373.932,390.492z M331.092,349.488l-8.567,37.944h-30.601l-8.568-37.944H331.092z
				 M275.4,354.996l7.344,32.436h-30.6L275.4,354.996z M252.144,395.388h32.436l13.464,58.14L252.144,395.388z M306.612,452.916
				l-12.853-57.528h26.928L306.612,452.916z M315.18,454.14L328.644,396h32.437L315.18,454.14z M331.092,387.432l7.344-32.436
				l23.257,32.436H331.092z"/>
		</g>
	</g>
	<g>
		<line fill="none" stroke="#FFFFFF" stroke-width="2" stroke-miterlimit="10" x1="309.06" y1="309.708" x2="306" y2="265.644"/>
		
			<line fill="none" stroke="#FFFFFF" stroke-width="2" stroke-miterlimit="10" x1="276.012" y1="315.216" x2="244.188" y2="277.884"/>
		
			<line fill="none" stroke="#FFFFFF" stroke-width="2" stroke-miterlimit="10" x1="248.472" y1="333.576" x2="196.452" y2="313.38"/>
		
			<line fill="none" stroke="#FFFFFF" stroke-width="2" stroke-miterlimit="10" x1="368.424" y1="339.084" x2="416.771" y2="313.992"/>
		
			<line fill="none" stroke="#FFFFFF" stroke-width="2" stroke-miterlimit="10" x1="343.944" y1="318.276" x2="370.26" y2="278.496"/>
	</g>
</g>
</svg>
