<?xml version="1.0" encoding="utf-8"?>
<!-- Generator: Adobe Illustrator 18.0.0, SVG Export Plug-In . SVG Version: 6.00 Build 0)  -->
<!DOCTYPE svg PUBLIC "-//W3C//DTD SVG 1.1//EN" "http://www.w3.org/Graphics/SVG/1.1/DTD/svg11.dtd">
<svg version="1.1" id="Layer_1" xmlns="http://www.w3.org/2000/svg" xmlns:xlink="http://www.w3.org/1999/xlink" x="0px" y="0px"
	 viewBox="0 0 50 50" enable-background="new 0 0 50 50" xml:space="preserve">
<g id="New_Symbol_17">
</g>
<g id="New_Symbol_3">
</g>
<g id="New_Symbol_6">
	<g>
		<g>
			<g>
				<path fill="#449384" d="M42.5,20.3c0,1.8-1.8,3.3-3.1,3.3H9.5c-1.4,0-2-1.5-2-3.3V10.2c0-1.6,0.6-2.9,2-2.9h29.9
					c1.4,0,3.1,1.1,3.1,2.9V20.3z"/>
			</g>
			<g>
				<path fill="#4FB8A7" d="M42.5,17.8c0,1.8-1.8,3.3-3.1,3.3H9.5c-1.4,0-2-1.5-2-3.3V7.7c0-1.6,0.6-2.9,2-2.9h29.9
					c1.4,0,3.1,1.1,3.1,2.9V17.8z"/>
			</g>
		</g>
		<g>
			<path fill="#FFFFFF" d="M31.4,27.7l-4.6-0.4c-0.6,0-1.2,0.2-1.8,0.5v-9.4c0-1.4-1.1-2.5-2.5-2.5c-1.4,0-2.5,1.1-2.5,2.5v16.8
				l-4.6-4.6c-0.6-0.5-1.9-0.3-2.9,0.8s-1.3,2.4-0.8,3l8.7,8.3c0.2,0.3,0.5,0.6,0.9,0.8l0.8,0.7c0.6,0.5,1.9,0.3,2.9-0.7
				c0.4,0.2,0.9,0.2,1.4,0.2H35c2.1,0,3.8-1.4,3.8-3.5v-8.9C38.8,29.4,33.5,27.7,31.4,27.7z"/>
			<path fill="#32526E" d="M36.1,27.7c-0.6,0-1.1,0.1-1.6,0.5c-0.6-0.8-1.6-1.3-2.6-1.3c-0.6,0-1.3,0.1-1.8,0.5
				c-0.6-0.8-1.6-1.3-2.8-1.3c-0.4,0-0.8,0-1,0.1v-7.9c0-1.9-1.6-3.5-3.5-3.5s-3.5,1.6-3.5,3.5v15.1l-2.1-2.1l0,0
				c-0.6-0.6-1.5-1-2.4-1s-1.8,0.4-2.4,1c-0.6,0.6-1,1.5-1,2.5c0,0.9,0.4,1.8,1,2.5l6.6,6.6c1.1,1.1,3.3,2,4.8,2h12.3
				c1.9,0,3.5-1.6,3.5-3.5V31.2C39.4,29.2,38,27.7,36.1,27.7z M36,43.5H23.7c-1.1,0-2.9-0.8-3.8-1.5l-6.6-6.6
				c-0.3-0.5-0.5-1-0.5-1.5s0.3-1,0.5-1.4c0.4-0.4,0.9-0.5,1.4-0.5s1,0.3,1.4,0.6l4.1,4.3c0.1,0.1,0.3,0.1,0.4,0.1
				c0.1,0,0.3-0.3,0.3-0.4V18.3c0-1.1,0.9-2,2-2c1.1,0,2,0.9,2,2v10.3c0,0.1,0.1,0.4,0.3,0.4s0.4,0,0.4-0.3c0.4-0.6,1.1-1,1.9-1
				c1,0,2,0.8,2,1.8c0,0.1,0.1,0.3,0.4,0.4c0.1,0,0.3-0.1,0.3-0.3c0.4-0.6,1-1.1,1.8-1.1c1,0,1.8,0.8,1.9,1.8c0,0.1,0.1,0.3,0.4,0.4
				c0.1,0,0.4,0,0.4-0.3c0.4-0.6,1-1.1,1.6-1.1c1,0,1.9,0.9,1.9,2v10.4C37.9,42.6,37,43.5,36,43.5z"/>
		</g>
	</g>
</g>
<g id="New_Symbol_15">
	<g id="New_Symbol_18">
	</g>
	<g id="New_Symbol_5">
	</g>
	<g id="New_Symbol_234">
	</g>
	<g id="New_Symbol_233">
	</g>
	<g id="New_Symbol_4">
	</g>
	<g id="New_Symbol_191">
		<g id="New_Symbol_189">
		</g>
	</g>
</g>
</svg>
